# xmcd
#
# Track frame offsets: 
#        150
#        18117
#        35835
#        48286
#        62231
#        72629
#        86912
#        98721
#        114641
#        129690
#
# Disc length: 1931 seconds
#
# Revision: 0
# Processed by: cddbd v1.5.2PL0 Copyright (c) Steve Scherf et al.
# Submitted via: ExactAudioCopy v0.99pb4
#
DISCID=8f07890a
DTITLE=Red Sovine - Classic Narrations
DYEAR=1978
DGENRE=Classic Country
TTITLE0=Giddyup Go
TTITLE1=Little Rosa
TTITLE2=A Dear John Letter
TTITLE3=I Think I Can Sleep Tonight
TTITLE4=Class of '49
TTITLE5=Dream House for Sale
TTITLE6=If Jesus Came to Your House
TTITLE7=Vietnam Deck of Cards
TTITLE8=Phantom 309
TTITLE9=Twenty One
EXTD=
EXTT0=
EXTT1=
EXTT2=
EXTT3=
EXTT4=
EXTT5=
EXTT6=
EXTT7=
EXTT8=
EXTT9=
PLAYORDER=
